<svg xmlns="http://www.w3.org/2000/svg" width="226.449" height="340.572" viewBox="0 0 226.449 340.572"><g transform="translate(-582.76 -494.1)"><g transform="translate(-99 95)"><g transform="translate(681.76 399.1)"><path d="M195.264,36.89h44.667a36.82,36.82,0,0,1-1.785,23.258S249.7,108.694,247.38,148.6c0,0,21.062,17.145,21.062,46.4V359.486s.231,4.726-3.416,6.242c-2.684,1.117-46.9,8.361-94.741,0,0,0-4.405-.8-4.405-6.974V193.892s1.618-29.949,22.526-45.039c0,0-.462-69.428,9.876-87.587a34.149,34.149,0,0,1-3.018-24.375Z" transform="translate(-165.88 -29.132)" fill="#b7daf8"/><path d="M200.087,39.034l32.749-.154s4.932,11.456-2.774,21.666c0,0,14.024,53.336,12.046,90.888,0,0,17.723,13.832,17.723,41.366s.321,152.584.321,152.584.205,4.456-2.838,5.882c-2.235,1.053-42.766,7-82.591-.873,0,0-3.673-.745-3.673-6.563V192.774s.064-29.859,23.361-40.93c0,0-2.4-70.3,8.656-91.119C203.093,60.725,195.156,48.833,200.087,39.034Z" transform="translate(-164.41 -28.566)" fill="#deecf8"/><path d="M30.816,1.337a8.38,8.38,0,0,1,3.878-2.916c10.436.405,26.188.933,26.188.933.656,5.707,6.2,17.432,6.2,20.908,0,0,3.048,31.032,4.064,47.333s.547,16.492.563,19.594c-.135,1.061,4.251,3.631,7.94,9.157,2.873,5.339,9.815,16.932,9.8,24.565C89.992,129,90,281.1,90,281.1c0,3.476-2.669,7.192-5.983,7.192A241.041,241.041,0,0,1,45.7,290.836,339,339,0,0,1,6,287.389,6.152,6.152,0,0,1,0,281.1S-1.236,124.531,1.313,120.911C3.693,106.456,8.253,102.3,12.2,96.346c3.347-3.7,9.295-7.715,11.89-10.88-1.575.314-.453-54.361,3.418-67.81A46.766,46.766,0,0,1,30.816,1.337Z" transform="translate(6.24 35.348)" fill="#ffc629"/><path d="M166.2,177.887s48.661-27.419,101.971,0V279.1s-44.038,24.337-101.971,0Z" transform="translate(-165.789 7.485)" fill="#4054ad"/><path d="M170.11,181s43.871-25.043,91.928,0v92.467s-39.7,22.218-91.928,0Z" transform="translate(-164.678 8.671)" fill="#eb627e"/><path d="M173.07,183.54s40.249-22.976,84.325,0V268.3s-36.422,20.381-84.325,0Z" transform="translate(-163.836 9.653)" fill="#4054ad"/><path d="M188.3,69.643s24.08-14.872,48.25,0a391.026,391.026,0,0,1,5.24,38.862s-23.271,16.285-57.792,0C184,108.505,185.04,85.658,188.3,69.643Z" transform="translate(-160.729 -21.7)" fill="#4054ad"/><path d="M186.992,72.013s21.64-14.833,49.2.09l.424,2.312s-25.929-15.052-50,0a12.571,12.571,0,0,1,.372-2.4Z" transform="translate(-159.984 -21.014)" fill="#eb627e"/><path d="M184.306,95.454s25.506,14.987,57.124,0l-.205-2S212,108.117,184.383,93.04a11.965,11.965,0,0,0-.077,2.414Z" transform="translate(-160.65 -13.17)" fill="#eb627e"/><path d="M191.8,54.36a226.211,226.211,0,0,0,36.358,0S212.31,65.957,191.8,54.36Z" transform="translate(-158.512 -24.166)" fill="#354923" opacity="0.2"/><path d="M238.545,125.585s-29.9,5.51-52.655-.3" transform="translate(-160.192 -4.003)" fill="#050706" opacity="0.2"/><path d="M221.107,39.284s3.75,13.857-3.7,20.882c0,0,14.679,70.635,8.99,92.288,0,0,20.42,16.285,20.42,39.016v165.4s.36,3.365-1.413,4.071-11.558,3.018-18.981,1.952c0,0-1.605.154-1.605-2.35s-.886-167.109-.886-167.109-3.249-35.3-16.5-42.2c0,0,8.759-55.506,1.67-91.5,0,0,7.616-14.615.758-21.049Z" transform="translate(-154.069 -28.623)" fill="#f0f6fb" opacity="0.61"/><path d="M199.79,39.057s-1.5,14.615,5.972,21.627c0,0-13.228,31.683-8.348,90.181,0,0-24.4,14.628-24.208,42.6.128,22.744-1.079,162.255-1.079,162.255s-.372,3.378,1.4,4.084,1.477,2.774,8.913,1.721c0,0,1.605.154,1.605-2.363s-.218-164.387-.218-164.387-1.58-26.006,24.581-43.062c0,0-4.855-56.02,2.235-92.018,0,0-5.574-14.281.347-20.9Z" transform="translate(-164.113 -28.589)" fill="#050706" opacity="0.07"/><path d="M227.857,30.85h-32.62s-8.476-.3-8.476,10.043c0,0,.193,6.511,5.522,6.511h38.464s5.882-.205,5.625-8.284C236.14,31.749,227.857,30.85,227.857,30.85Z" transform="translate(-159.944 -30.849)" fill="#4054ad"/><path d="M211.34,31.87h9.144s7.295,5.908.693,13.78h-9.722S216.439,38.24,211.34,31.87Z" transform="translate(-152.957 -30.559)" fill="#fff" opacity="0.21"/><path d="M202.172,32h-9.157s-7.295,5.908-.693,13.78h9.735S197.074,38.421,202.172,32Z" transform="translate(-159.149 -30.522)" opacity="0.2"/></g><g transform="translate(707.095 595.547)"><text transform="translate(0 40.821)" fill="#fdd13d" font-size="20" font-family="Futura-Bold, Futura" font-weight="700"><tspan x="0" y="0">FOO</tspan></text><text transform="translate(0.03 59.597)" fill="#f16a38" font-size="20" font-family="Futura-Bold, Futura" font-weight="700"><tspan x="0" y="0">BAR</tspan></text><path d="M39,167.1H88.382v6.861a103.722,103.722,0,0,1-24.93,2.872A89.09,89.09,0,0,1,39,173.682Z" transform="translate(-37.76 -103.765)" fill="#f5f8fc"/><path d="M81.923,43.494,82,35.038V32.126s-.12-1.237,2.912-1.237H89.98s1.077-10.571-8.337-10.172c0,0-2.034-7.938-10.251-6.263,0,0-3.032-8.058-11.927-5.7S51.248,19.84,51.248,19.84,40.039,15.532,39.8,31.128l21.1.16s3.151.12,3.032,6.263c-.16,7.22,0,12.246,0,12.246s-.239,3.75,3.989,3.75,3.63-3.63,3.63-3.63V38.348s0-3.191,3.111-3.191a2.835,2.835,0,0,1,2.992,2.992v5.265s-.239,2.673,2.154,2.673S81.923,43.494,81.923,43.494Z" transform="translate(-38.241 -8.32)" fill="#fff"/></g></g><g transform="translate(588.99 493.001)"><path d="M195.231,36.89h44.616a36.778,36.778,0,0,1-1.783,23.232s11.545,48.491,9.223,88.348c0,0,21.038,17.126,21.038,46.348v164.3s.231,4.721-3.412,6.234c-2.681,1.116-46.849,8.351-94.634,0,0,0-4.4-.8-4.4-6.966V193.715s1.616-29.915,22.5-44.988c0,0-.462-69.349,9.865-87.488a34.11,34.11,0,0,1-3.015-24.348Z" transform="translate(-48.11 -28.042)" fill="#513316"/><path d="M200.055,39.034l32.712-.154S237.692,50.323,230,60.521c0,0,14.008,53.275,12.033,90.785,0,0,17.7,13.816,17.7,41.32s.321,152.412.321,152.412.205,4.451-2.835,5.875c-2.232,1.052-42.718,6.991-82.5-.872,0,0-3.669-.744-3.669-6.555V192.6s.064-29.826,23.334-40.883c0,0-2.4-70.222,8.646-91.016C203.056,60.7,195.129,48.822,200.055,39.034Z" transform="translate(-46.648 -27.479)" fill="#c6752b"/><path d="M166.2,177.874s48.606-27.388,101.856,0v101.1s-43.988,24.309-101.856,0Z" transform="translate(-48.02 8.389)" fill="#4f7234"/><path d="M170.11,180.991s43.821-25.015,91.824,0v92.363s-39.652,22.193-91.824,0Z" transform="translate(-46.914 9.569)" fill="#eed813"/><path d="M173.07,183.529s40.2-22.95,84.23,0v84.666s-36.381,20.358-84.23,0Z" transform="translate(-46.077 10.546)" fill="#4f7234"/><path d="M188.3,69.636s24.053-14.855,48.2,0a390.583,390.583,0,0,1,5.234,38.818s-23.245,16.266-57.727,0C184,108.454,185.039,85.632,188.3,69.636Z" transform="translate(-42.985 -20.648)" fill="#4f7234"/><path d="M186.992,72.006s21.616-14.817,49.145.09l.423,2.309s-25.9-15.035-49.94,0a12.556,12.556,0,0,1,.372-2.4Z" transform="translate(-42.244 -19.965)" fill="#eed813"/><path d="M184.306,95.452s25.477,14.97,57.06,0l-.205-2s-29.2,14.65-56.778-.411a11.954,11.954,0,0,0-.077,2.412Z" transform="translate(-42.907 -12.161)" fill="#eed813"/><path d="M191.8,54.36a225.954,225.954,0,0,0,36.317,0S212.287,65.944,191.8,54.36Z" transform="translate(-40.779 -23.101)" fill="#354923" opacity="0.6"/><path d="M238.486,125.585s-29.864,5.5-52.6-.3" transform="translate(-42.451 -3.04)" fill="#354923" opacity="0.61"/><path d="M221.092,39.283s3.746,13.842-3.695,20.859c0,0,14.663,70.555,8.98,92.183,0,0,20.4,16.266,20.4,38.972V356.511s.359,3.361-1.411,4.067-11.545,3.015-18.96,1.95c0,0-1.6.154-1.6-2.348s-.885-166.92-.885-166.92S220.669,158,207.43,151.106c0,0,8.749-55.443,1.668-91.4,0,0,7.607-14.6.757-21.025Z" transform="translate(-36.359 -27.535)" fill="#fee000" opacity="0.61"/><path d="M199.759,39.057s-1.5,14.6,5.965,21.6c0,0-13.213,31.647-8.338,90.08,0,0-24.374,14.611-24.181,42.551.128,22.719-1.078,162.071-1.078,162.071s-.372,3.374,1.4,4.079,1.475,2.771,8.9,1.719c0,0,1.6.154,1.6-2.36s-.218-164.2-.218-164.2-1.578-25.977,24.553-43.013c0,0-4.849-55.957,2.232-91.914,0,0-5.567-14.265.346-20.871Z" transform="translate(-46.352 -27.501)" fill="#020202" opacity="0.19"/><path d="M227.81,30.85H195.227s-8.467-.3-8.467,10.032c0,0,.192,6.5,5.516,6.5H230.7s5.875-.205,5.619-8.274C236.084,31.748,227.81,30.85,227.81,30.85Z" transform="translate(-42.205 -29.75)" fill="#4f7234"/><path d="M211.34,31.87h9.134s7.286,5.9.693,13.765h-9.711S216.433,38.233,211.34,31.87Z" transform="translate(-35.253 -29.461)" fill="#fff" opacity="0.21"/><path d="M202.158,32h-9.147s-7.286,5.9-.693,13.765h9.724S197.065,38.414,202.158,32Z" transform="translate(-41.414 -29.425)" opacity="0.26"/></g><g transform="translate(732.095 692.547)"><text transform="translate(0 40.821)" fill="#fdd13d" font-size="20" font-family="Futura-Bold, Futura" font-weight="700"><tspan x="0" y="0">FOO</tspan></text><text transform="translate(0.03 59.597)" fill="#f16a38" font-size="20" font-family="Futura-Bold, Futura" font-weight="700"><tspan x="0" y="0">BAR</tspan></text><path d="M39,167.1H88.382v6.861a103.722,103.722,0,0,1-24.93,2.872A89.09,89.09,0,0,1,39,173.682Z" transform="translate(-37.76 -103.765)" fill="#f5f8fc"/><path d="M81.923,43.494,82,35.038V32.126s-.12-1.237,2.912-1.237H89.98s1.077-10.571-8.337-10.172c0,0-2.034-7.938-10.251-6.263,0,0-3.032-8.058-11.927-5.7S51.248,19.84,51.248,19.84,40.039,15.532,39.8,31.128l21.1.16s3.151.12,3.032,6.263c-.16,7.22,0,12.246,0,12.246s-.239,3.75,3.989,3.75,3.63-3.63,3.63-3.63V38.348s0-3.191,3.111-3.191a2.835,2.835,0,0,1,2.992,2.992v5.265s-.239,2.673,2.154,2.673S81.923,43.494,81.923,43.494Z" transform="translate(-38.241 -8.32)" fill="#fff"/></g></g></svg>