<svg id="Layer_2" data-name="Layer 2" xmlns="http://www.w3.org/2000/svg" xmlns:xlink="http://www.w3.org/1999/xlink" viewBox="0 0 1282.28 800"><defs><linearGradient id="linear-gradient" x1="1.19" y1="801.8" x2="1.19" y2="801.2" gradientTransform="matrix(1920, 0, 0, -213.51, -1653, 171579.9)" gradientUnits="userSpaceOnUse"><stop offset="0" stop-color="#ea738c"/><stop offset="1" stop-color="#753a46"/></linearGradient><linearGradient id="linear-gradient-2" x1="1.19" y1="801.36" x2="1.19" y2="800.67" gradientTransform="matrix(1920, 0, 0, -198.51, -1653, 159206.9)" xlink:href="#linear-gradient"/><linearGradient id="linear-gradient-3" x1="1.19" y1="802.86" x2="1.19" y2="803.4" gradientTransform="matrix(1919.78, 0, 0, -113.9, -1652.78, 92007.42)" gradientUnits="userSpaceOnUse"><stop offset="0" stop-color="#3a3659"/><stop offset="1" stop-color="#242139"/></linearGradient><linearGradient id="linear-gradient-4" x1="1.19" y1="801.94" x2="1.19" y2="802.55" gradientTransform="matrix(1919.78, 0, 0, -113.9, -1652.78, 91634.42)" gradientUnits="userSpaceOnUse"><stop offset="0" stop-color="#3d395e"/><stop offset="1" stop-color="#27253b"/></linearGradient></defs><path id="Path_5" data-name="Path 5" d="M.05,673H1280V801H.05Z" transform="translate(1.28 -1)" style="fill:#3d395b"/><path id="Path_961" data-name="Path 961" d="M0,337.63H1280.15V490.22H0Z" transform="translate(1.28 -1)" style="fill:url(#linear-gradient)"/><path id="Path_139" data-name="Path 139" d="M0,81H1280.15V224H0Z" transform="translate(1.28 -1)" style="fill:url(#linear-gradient-2)"/><path id="Path_129" data-name="Path 129" d="M1248,490.22,1249,81l31.25-42.09V75.05l-.15,496.83Z" transform="translate(1.28 -1)" style="fill:#d0566f"/><path id="Path_130" data-name="Path 130" d="M31.45,491.2,32,82,0,39.79.11,573.16Z" transform="translate(1.28 -1)" style="fill:#d0566f"/><path id="Path_119" data-name="Path 119" d="M-1.28,571l32.51-80.76L1248,490l32,81.62Z" transform="translate(1.28 -1)" style="fill:url(#linear-gradient-3)"/><path id="Path_128-2" data-name="Path 128-2" d="M-1.28,304.4l32.51-80.76,1217.77.07L1280,305Z" transform="translate(1.28 -1)" style="fill:url(#linear-gradient-4)"/><rect x="0.28" y="303" width="1281" height="36" style="fill:#655773"/><rect x="1.28" y="570" width="1281" height="36" style="fill:#655773"/><path id="Path_120" data-name="Path 120" d="M0,39.94,32,82l1217-.38,31-41.93Z" transform="translate(1.28 -1)" style="fill:#b1475d"/><ellipse id="Ellipse_1" data-name="Ellipse 1" cx="287.65" cy="55.76" rx="17.35" ry="3.93" style="fill:#fff"/><ellipse id="Ellipse_2" data-name="Ellipse 2" cx="993.11" cy="52.18" rx="17.35" ry="3.93" style="fill:#fff"/><ellipse id="Ellipse_3" data-name="Ellipse 3" cx="521.92" cy="55.76" rx="17.35" ry="3.93" style="fill:#fff"/><ellipse id="Ellipse_4" data-name="Ellipse 4" cx="758.18" cy="52.18" rx="17.35" ry="3.93" style="fill:#fff"/><rect x="0.28" width="1281" height="39" style="fill:#4054ad"/></svg>