<svg id="Layer_1" data-name="Layer 1" xmlns="http://www.w3.org/2000/svg" xmlns:xlink="http://www.w3.org/1999/xlink" viewBox="0 0 800.53 1280.02"><defs><linearGradient id="linear-gradient" x1="1.93" y1="1282.73" x2="1.93" y2="1281.29" gradientTransform="matrix(320, 0, 0, -82.6, -216.5, 106030.6)" gradientUnits="userSpaceOnUse"><stop offset="0" stop-color="#ea738c"/><stop offset="1" stop-color="#753a46"/></linearGradient><linearGradient id="linear-gradient-2" x1="1.93" y1="1282.72" x2="1.93" y2="1284.02" gradientTransform="matrix(319.81, 0, 0, -47.62, -216.17, 61307.57)" gradientUnits="userSpaceOnUse"><stop offset="0" stop-color="#3d395e"/><stop offset="1" stop-color="#27253b"/></linearGradient><linearGradient id="linear-gradient-3" x1="1.93" y1="1280.01" x2="1.93" y2="1278.57" xlink:href="#linear-gradient"/><linearGradient id="linear-gradient-4" x1="1.93" y1="1278" x2="1.93" y2="1279.3" xlink:href="#linear-gradient-2"/><linearGradient id="linear-gradient-5" x1="1.93" y1="1277.28" x2="1.93" y2="1275.84" xlink:href="#linear-gradient"/><linearGradient id="linear-gradient-6" x1="1.93" y1="1273.28" x2="1.93" y2="1274.58" xlink:href="#linear-gradient-2"/><linearGradient id="linear-gradient-7" x1="1.93" y1="1274.56" x2="1.93" y2="1273.12" xlink:href="#linear-gradient"/><linearGradient id="linear-gradient-8" x1="1.93" y1="1268.56" x2="1.93" y2="1269.86" xlink:href="#linear-gradient-2"/><linearGradient id="linear-gradient-9" x1="1.93" y1="1271.86" x2="1.93" y2="1270.42" xlink:href="#linear-gradient"/><linearGradient id="linear-gradient-10" x1="1.93" y1="1263.87" x2="1.93" y2="1265.18" xlink:href="#linear-gradient-2"/></defs><path id="Path_1000" data-name="Path 1000" d="M0,1111v169H800l.48-170Z" transform="translate(0.05 0.02)" style="fill:#4054ad"/><path id="Path_1000-2" data-name="Path 1000" d="M0,.21,0,39l799.8-.66L800,0Z" transform="translate(0.05 0.02)" style="fill:#4054ad"/><rect id="Rectangle_561" data-name="Rectangle 561" x="0.05" y="229.76" width="800" height="28.75" style="fill:#655773"/><path id="Path_1003" data-name="Path 1003" d="M0,33.74H800v125H0Z" transform="translate(0.05 0.02)" style="fill:url(#linear-gradient)"/><path id="Path_1004" data-name="Path 1004" d="M0,229.71V158.63l800,.09v72Z" transform="translate(0.05 0.02)" style="fill:url(#linear-gradient-2)"/><rect id="Rectangle_561-2" data-name="Rectangle 561" x="0.05" y="454.38" width="800" height="29.64" style="fill:#655773"/><path id="Path_1003-2" data-name="Path 1003" d="M0,258.37H800v125H0Z" transform="translate(0.05 0.02)" style="fill:url(#linear-gradient-3)"/><path id="Path_1004-2" data-name="Path 1004" d="M0,454.33V383.26l799.88.09v72Z" transform="translate(0.05 0.02)" style="fill:url(#linear-gradient-4)"/><rect id="Rectangle_561-3" data-name="Rectangle 561" x="0.05" y="679.55" width="800" height="28.75" style="fill:#655773"/><path id="Path_1003-3" data-name="Path 1003" d="M0,483.54H800v125H0Z" transform="translate(0.05 0.02)" style="fill:url(#linear-gradient-5)"/><path id="Path_1004-3" data-name="Path 1004" d="M0,679.5V608.42l799.88.1v72Z" transform="translate(0.05 0.02)" style="fill:url(#linear-gradient-6)"/><rect id="Rectangle_561-4" data-name="Rectangle 561" x="0.05" y="904.31" width="800" height="28.75" style="fill:#655773"/><path id="Path_1003-4" data-name="Path 1003" d="M0,708.3H800v125H0Z" transform="translate(0.05 0.02)" style="fill:url(#linear-gradient-7)"/><path id="Path_1004-4" data-name="Path 1004" d="M0,904.26V833.18l799.88.1v72Z" transform="translate(0.05 0.02)" style="fill:url(#linear-gradient-8)"/><rect id="Rectangle_561-5" data-name="Rectangle 561" x="0.05" y="1127.27" width="800" height="28.75" style="fill:#655773"/><path id="Path_1003-5" data-name="Path 1003" d="M0,931.26H800v125H0Z" transform="translate(0.05 0.02)" style="fill:url(#linear-gradient-9)"/><path id="Path_1004-5" data-name="Path 1004" d="M0,1127.22v-71.07l799.88.09v72Z" transform="translate(0.05 0.02)" style="fill:url(#linear-gradient-10)"/><path id="Path_1000-3" data-name="Path 1000" d="M0,33.38.06,58.06l799.8-.42L800,33.23Z" transform="translate(0.05 0.02)" style="fill:#b1475d"/><ellipse id="Ellipse_2" data-name="Ellipse 2" cx="394.39" cy="43.64" rx="19.66" ry="4.47" style="fill:#fff"/></svg>