<?xml version="1.0" encoding="utf-8"?>
<!-- Generator: Adobe Illustrator 24.1.0, SVG Export Plug-In . SVG Version: 6.00 Build 0)  -->
<svg version="1.1" id="Layer_1" xmlns="http://www.w3.org/2000/svg" xmlns:xlink="http://www.w3.org/1999/xlink" x="0px" y="0px"
	 viewBox="0 0 800.5 1280" style="enable-background:new 0 0 800.5 1280;" xml:space="preserve">
<style type="text/css">
	.st0{fill:#4054AD;}
	.st1{fill:url(#Path_1003_1_);}
	.st2{fill:url(#Path_1003-2_1_);}
	.st3{fill:#655773;}
	.st4{fill:url(#Path_1003-3_1_);}
	.st5{fill:url(#Path_1004-3_1_);}
	.st6{fill:#B1475D;}
	.st7{fill:#FFFFFF;}
	.st8{fill:url(#Path_131_3_);}
	.st9{fill:url(#Path_131_4_);}
	.st10{fill:url(#Path_131_5_);}
	.st11{fill:url(#Path_1004_1_);}
	.st12{fill:url(#Path_1004-2_1_);}
	.st13{opacity:0.35;}
	.st14{fill:#513316;}
	.st15{fill:#C6752B;}
	.st16{fill:#4E7234;}
	.st17{fill:#EED812;}
	.st18{opacity:0.6;fill:#344923;}
	.st19{opacity:0.61;fill:#344923;}
	.st20{opacity:0.61;fill:#FFDF00;}
	.st21{opacity:0.19;fill:#020202;}
	.st22{opacity:0.21;fill:#FFFFFF;}
	.st23{opacity:0.26;}
	.st24{fill:#6EAB43;}
	.st25{fill:#911B1D;}
	.st26{opacity:0.46;fill:#E9D51A;}
	.st27{opacity:0.35;fill:#3D5628;}
</style>
<path id="Path_1000" class="st0" d="M0.1,1071.3V1280H800l0.5-210L0.1,1071.3z"/>
<path id="Path_1000-2" class="st0" d="M0.1,0.2V39l800.3-0.7L800.5,0L0.1,0.2z"/>
<linearGradient id="Path_1003_1_" gradientUnits="userSpaceOnUse" x1="205.2899" y1="1287.7217" x2="205.2899" y2="1285.5039" gradientTransform="matrix(320 0 0 -82.6 -65292.4492 106466.625)">
	<stop  offset="0" style="stop-color:#EA738C"/>
	<stop  offset="1" style="stop-color:#753A46"/>
</linearGradient>
<path id="Path_1003" class="st1" d="M0.1,34.1h800.4v192.5H0.1V34.1z"/>
<linearGradient id="Path_1003-2_1_" gradientUnits="userSpaceOnUse" x1="205.2898" y1="1283.5323" x2="205.2898" y2="1281.3142" gradientTransform="matrix(320 0 0 -82.6 -65292.4492 106466.625)">
	<stop  offset="0" style="stop-color:#EA738C"/>
	<stop  offset="1" style="stop-color:#753A46"/>
</linearGradient>
<path id="Path_1003-2" class="st2" d="M0.1,380h800.4v192.5H0.1V380z"/>
<rect id="Rectangle_561-3" x="0.1" y="1028.6" class="st3" width="800.3" height="44.4"/>
<linearGradient id="Path_1003-3_1_" gradientUnits="userSpaceOnUse" x1="205.2897" y1="1279.3274" x2="205.2897" y2="1277.1093" gradientTransform="matrix(320 0 0 -82.6 -65292.4492 106466.625)">
	<stop  offset="0" style="stop-color:#EA738C"/>
	<stop  offset="1" style="stop-color:#753A46"/>
</linearGradient>
<path id="Path_1003-3" class="st4" d="M0.1,726.9h800.3v192.5H0.1V726.9z"/>
<linearGradient id="Path_1004-3_1_" gradientUnits="userSpaceOnUse" x1="205.2895" y1="1275.167" x2="205.2895" y2="1277.1692" gradientTransform="matrix(319.81 0 0 -47.62 -65253.3594 61743.5898)">
	<stop  offset="0" style="stop-color:#3D395E"/>
	<stop  offset="1" style="stop-color:#27253B"/>
</linearGradient>
<path id="Path_1004-3" class="st5" d="M0.1,1028.6V919.1l800.3,0.2v110.9L0.1,1028.6z"/>
<path id="Path_1000-3" class="st6" d="M0.1,33.5l0.1,38l800.3-0.7l-0.1-37.5L0.1,33.5z"/>
<ellipse id="Ellipse_2" class="st7" cx="400.1" cy="53.3" rx="31.5" ry="11.1"/>
<linearGradient id="Path_131_3_" gradientUnits="userSpaceOnUse" x1="205.5049" y1="-3.6223" x2="205.5049" y2="-2.403" gradientTransform="matrix(131.2499 0 0 110.0795 -26570.8457 440.9759)">
	<stop  offset="0" style="stop-color:#FEC52D;stop-opacity:0.604"/>
	<stop  offset="1" style="stop-color:#7F6317;stop-opacity:0"/>
</linearGradient>
<path id="Path_131" class="st8" d="M368,52c0,0,3.5-9.7,31.3-9.7c27.8-0.2,31.3,9.7,31.3,9.7l46.7,124.5H326L368,52z"/>
<linearGradient id="Path_131_4_" gradientUnits="userSpaceOnUse" x1="205.5049" y1="-0.6272" x2="205.5049" y2="0.5921" gradientTransform="matrix(131.2499 0 0 110.0795 -26570.8457 440.9759)">
	<stop  offset="0" style="stop-color:#FEC52D;stop-opacity:0.604"/>
	<stop  offset="1" style="stop-color:#7F6317;stop-opacity:0"/>
</linearGradient>
<path id="Path_131_1_" class="st9" d="M368,381.7c0,0,3.5-9.7,31.3-9.7c27.8-0.2,31.3,9.7,31.3,9.7l46.7,124.5H326L368,381.7z"/>
<linearGradient id="Path_131_5_" gradientUnits="userSpaceOnUse" x1="205.5049" y1="2.5146" x2="205.5049" y2="3.734" gradientTransform="matrix(131.2499 0 0 110.0795 -26570.8457 440.9759)">
	<stop  offset="0" style="stop-color:#FEC52D;stop-opacity:0.604"/>
	<stop  offset="1" style="stop-color:#7F6317;stop-opacity:0"/>
</linearGradient>
<path id="Path_131_2_" class="st10" d="M368,727.5c0,0,3.5-9.7,31.3-9.7c27.8-0.2,31.3,9.7,31.3,9.7L477.3,852H326L368,727.5z"/>
<rect id="Rectangle_561" x="0.1" y="336" class="st3" width="800.4" height="44.4"/>
<linearGradient id="Path_1004_1_" gradientUnits="userSpaceOnUse" x1="205.2896" y1="1289.7069" x2="205.2896" y2="1291.7095" gradientTransform="matrix(319.81 0 0 -47.62 -65253.3594 61743.5898)">
	<stop  offset="0" style="stop-color:#3D395E"/>
	<stop  offset="1" style="stop-color:#27253B"/>
</linearGradient>
<path id="Path_1004" class="st11" d="M0.1,335.8V226.3l800.4,0.2v110.9L0.1,335.8z"/>
<rect id="Rectangle_561-2" x="0.1" y="681.9" class="st3" width="800.4" height="45.6"/>
<linearGradient id="Path_1004-2_1_" gradientUnits="userSpaceOnUse" x1="205.2896" y1="1282.4369" x2="205.2896" y2="1284.4393" gradientTransform="matrix(319.81 0 0 -47.62 -65253.3594 61743.5898)">
	<stop  offset="0" style="stop-color:#3D395E"/>
	<stop  offset="1" style="stop-color:#27253B"/>
</linearGradient>
<path id="Path_1004-2" class="st12" d="M0.1,681.8V572.2l800.4,0.2v110.9L0.1,681.8z"/>
<ellipse class="st13" cx="644.8" cy="992.7" rx="38.4" ry="11"/>
<ellipse class="st13" cx="721.9" cy="992.7" rx="38.4" ry="11"/>
<g>
	<path class="st14" d="M710.6,822.8h23c0,0,1.7,5.4-0.9,12c0,0,6,25,4.8,45.6c0,0,10.9,8.8,10.9,23.9c0,15.1,0,84.8,0,84.8
		s0.1,2.4-1.8,3.2c-1.4,0.6-24.2,4.3-48.8,0c0,0-2.3-0.4-2.3-3.6c0-2.3,0-85,0-85s0.8-15.4,11.6-23.2c0,0-0.2-35.8,5.1-45.1
		C712.2,835.3,708.9,830,710.6,822.8z"/>
	<path class="st15" d="M713.9,824.2l16.9-0.1c0,0,2.5,5.9-1.4,11.1c0,0,7.2,27.5,6.2,46.8c0,0,9.1,7.1,9.1,21.3s0.2,78.6,0.2,78.6
		s0.1,2.3-1.5,3c-1.2,0.5-22,3.6-42.6-0.4c0,0-1.9-0.4-1.9-3.4c0-2.1,0-77.9,0-77.9s0-15.4,12-21.1c0,0-1.2-36.2,4.5-47
		C715.4,835.3,711.3,829.2,713.9,824.2z"/>
	<path class="st16" d="M695.7,914.3c0,0,25.1-14.1,52.6,0v52.2c0,0-22.7,12.5-52.6,0V914.3z"/>
	<path class="st17" d="M698.3,916.5c0,0,22.6-12.9,47.4,0v47.6c0,0-20.5,11.5-47.4,0V916.5z"/>
	<path class="st16" d="M700.2,918.3c0,0,20.7-11.8,43.5,0V962c0,0-18.8,10.5-43.5,0V918.3z"/>
	<rect x="710.1" y="932" class="st17" width="23.7" height="10.4"/>
	<path class="st16" d="M709.7,843.5c0,0,12.4-7.7,24.9,0c0,0,2.1,11.3,2.7,20c0,0-12,8.4-29.8,0C707.5,863.5,708,851.7,709.7,843.5z
		"/>
	<path class="st17" d="M709.4,845c0,0,11.2-7.6,25.4,0l0.2,1.2c0,0-13.4-7.8-25.8,0C709.2,846.3,709.3,845.2,709.4,845z"/>
	<path class="st17" d="M707.7,861.2c0,0,13.1,7.7,29.4,0l-0.1-1c0,0-15.1,7.6-29.3-0.2C707.7,860,707.6,860.8,707.7,861.2z"/>
	<path class="st18" d="M712.6,834.3c0,0,9.9,0.9,18.7,0C731.4,834.3,723.2,840.3,712.6,834.3z"/>
	<path class="st19" d="M735.9,881.4c0,0-15.4,2.8-27.2-0.2"/>
	<path class="st20" d="M730,824.3c0,0,2,7.1-1.9,10.8c0,0,7.6,36.4,4.6,47.6c0,0,10.5,8.4,10.5,20.1c0,11.7,0,85.2,0,85.2
		s0.2,1.7-0.7,2.1c-0.9,0.4-5.9,1.6-9.8,1c0,0-0.8,0.1-0.8-1.2s-0.5-86.1-0.5-86.1s-1.7-18.2-8.5-21.7c0,0,4.5-28.6,0.9-47.2
		c0,0,3.9-7.5,0.4-10.9L730,824.3z"/>
	<path class="st21" d="M713.9,824.2c0,0-0.8,7.5,3.1,11.2c0,0-6.8,16.3-4.3,46.5c0,0-12.6,7.5-12.5,22c0.1,11.7-0.6,83.6-0.6,83.6
		s-0.2,1.7,0.7,2.1c0.9,0.4,0.8,1.4,4.6,0.9c0,0,0.8,0.1,0.8-1.2s-0.1-84.7-0.1-84.7s-0.8-13.4,12.7-22.2c0,0-2.5-28.9,1.2-47.4
		c0,0-2.9-7.4,0.2-10.8L713.9,824.2z"/>
	<path class="st16" d="M730.5,818.8h-16.8c0,0-4.4-0.2-4.4,5.2c0,0,0.1,3.4,2.8,3.4l19.8,0c0,0,3-0.1,2.9-4.3
		C734.8,819.2,730.5,818.8,730.5,818.8z"/>
	<path class="st22" d="M725.6,819.4h4.7c0,0,3.8,3,0.4,7.1h-5C725.6,826.5,728.2,822.7,725.6,819.4z"/>
	<path class="st23" d="M717.7,819.5h-4.7c0,0-3.8,3-0.4,7.1h5C717.6,826.6,715,822.8,717.7,819.5z"/>
</g>
<g>
	<path class="st16" d="M633.5,822h23c0,0,1.7,5.4-0.9,12c0,0,6,25,4.8,45.6c0,0,10.9,8.8,10.9,23.9c0,15.1,0,84.8,0,84.8
		s0.1,2.4-1.8,3.2c-1.4,0.6-24.2,4.3-48.8,0c0,0-2.3-0.4-2.3-3.6c0-2.3,0-85,0-85s0.8-15.4,11.6-23.2c0,0-0.2-35.8,5.1-45.1
		C635,834.6,631.7,829.3,633.5,822z"/>
	<path class="st24" d="M636.7,823.5l16.9-0.1c0,0,2.5,5.9-1.4,11.1c0,0,7.2,27.5,6.2,46.8c0,0,9.1,7.1,9.1,21.3s0.2,78.6,0.2,78.6
		s0.1,2.3-1.5,3c-1.2,0.5-22,3.6-42.6-0.4c0,0-1.9-0.4-1.9-3.4c0-2.1,0-77.9,0-77.9s0-15.4,12-21.1c0,0-1.2-36.2,4.5-47
		C638.2,834.6,634.2,828.5,636.7,823.5z"/>
	<path class="st25" d="M618.5,913.6c0,0,25.1-14.1,52.6,0v52.2c0,0-22.7,12.5-52.6,0V913.6z"/>
	<path class="st17" d="M621.1,915.8c0,0,22.6-12.9,47.4,0v47.6c0,0-20.5,11.5-47.4,0V915.8z"/>
	<path class="st25" d="M623.1,917.6c0,0,20.7-11.8,43.5,0v43.7c0,0-18.8,10.5-43.5,0V917.6z"/>
	<rect x="633" y="931.3" class="st17" width="23.7" height="10.4"/>
	<path class="st25" d="M632.5,842.7c0,0,12.4-7.7,24.9,0c0,0,2.1,11.3,2.7,20c0,0-12,8.4-29.8,0C630.3,862.8,630.9,851,632.5,842.7z
		"/>
	<path class="st17" d="M632.2,844.3c0,0,11.2-7.6,25.4,0l0.2,1.2c0,0-13.4-7.8-25.8,0C632.1,845.6,632.1,844.5,632.2,844.3z"/>
	<path class="st17" d="M630.5,860.4c0,0,13.1,7.7,29.4,0l-0.1-1c0,0-15.1,7.6-29.3-0.2C630.6,859.2,630.5,860.1,630.5,860.4z"/>
	<path class="st18" d="M635.5,833.6c0,0,9.9,0.9,18.7,0C654.2,833.6,646.1,839.6,635.5,833.6z"/>
	<path class="st19" d="M658.7,880.7c0,0-15.4,2.8-27.2-0.2"/>
	<path class="st26" d="M652.9,823.5c0,0,2,7.1-1.9,10.8c0,0,7.6,36.4,4.6,47.6c0,0,10.5,8.4,10.5,20.1s0,85.2,0,85.2
		s0.2,1.7-0.7,2.1c-0.9,0.4-5.9,1.6-9.8,1c0,0-0.8,0.1-0.8-1.2c0-1.3-0.5-86.1-0.5-86.1s-1.7-18.2-8.5-21.7c0,0,4.5-28.6,0.9-47.2
		c0,0,3.9-7.5,0.4-10.9L652.9,823.5z"/>
	<path class="st27" d="M636.7,823.5c0,0-0.8,7.5,3.1,11.2c0,0-6.8,16.3-4.3,46.5c0,0-12.6,7.5-12.5,22c0.1,11.7-0.6,83.6-0.6,83.6
		s-0.2,1.7,0.7,2.1c0.9,0.4,0.8,1.4,4.6,0.9c0,0,0.8,0.1,0.8-1.2s-0.1-84.7-0.1-84.7s-0.8-13.4,12.7-22.2c0,0-2.5-28.9,1.2-47.4
		c0,0-2.9-7.4,0.2-10.8L636.7,823.5z"/>
	<path class="st25" d="M653.3,818h-16.8c0,0-4.4-0.2-4.4,5.2c0,0,0.1,3.4,2.8,3.4l19.8,0c0,0,3-0.1,2.9-4.3
		C657.6,818.5,653.3,818,653.3,818z"/>
	<path class="st22" d="M648.4,818.7h4.7c0,0,3.8,3,0.4,7.1h-5C648.5,825.8,651,822,648.4,818.7z"/>
	<path class="st23" d="M639.4,818.8h-4.7c0,0-3.8,3-0.4,7.1h5C639.4,825.9,636.8,822.1,639.4,818.8z"/>
</g>
</svg>
