<svg id="Layer_2" data-name="Layer 2" xmlns="http://www.w3.org/2000/svg" xmlns:xlink="http://www.w3.org/1999/xlink" viewBox="0 0 1282.6 800"><defs><linearGradient id="linear-gradient" x1="472.95" y1="838.67" x2="472.95" y2="838.07" gradientTransform="matrix(1920, 0, 0, -213.51, -907419.72, 179450.24)" gradientUnits="userSpaceOnUse"><stop offset="0" stop-color="#ea738c"/><stop offset="1" stop-color="#753a46"/></linearGradient><linearGradient id="linear-gradient-2" x1="472.95" y1="838.22" x2="472.95" y2="837.53" gradientTransform="matrix(1920, 0, 0, -198.51, -907419.72, 166523.89)" xlink:href="#linear-gradient"/><linearGradient id="linear-gradient-3" x1="472.95" y1="839.71" x2="472.95" y2="840.25" gradientTransform="matrix(1919.78, 0, 0, -113.9, -907315.68, 96203.17)" gradientUnits="userSpaceOnUse"><stop offset="0" stop-color="#3a3659"/><stop offset="1" stop-color="#242139"/></linearGradient><linearGradient id="linear-gradient-4" x1="472.95" y1="838.79" x2="472.95" y2="839.4" gradientTransform="matrix(1919.78, 0, 0, -113.9, -907315.68, 95830.17)" gradientUnits="userSpaceOnUse"><stop offset="0" stop-color="#3d395e"/><stop offset="1" stop-color="#27253b"/></linearGradient><linearGradient id="linear-gradient-5" x1="342.59" y1="820.27" x2="342.59" y2="819.6" gradientTransform="matrix(131.25, 0, 0, -110.08, -44675.59, 90347.1)" gradientUnits="userSpaceOnUse"><stop offset="0" stop-color="#fec52d" stop-opacity="0.6"/><stop offset="1" stop-color="#7f6317" stop-opacity="0"/></linearGradient><linearGradient id="linear-gradient-6" x1="341.7" y1="820.27" x2="341.7" y2="819.6" gradientTransform="matrix(131.25, 0, 0, -110.08, -44324.59, 90347.1)" xlink:href="#linear-gradient-5"/><linearGradient id="linear-gradient-7" x1="340.8" y1="820.26" x2="340.8" y2="819.58" gradientTransform="matrix(131.25, 0, 0, -110.08, -43970.59, 90342.1)" xlink:href="#linear-gradient-5"/><linearGradient id="linear-gradient-8" x1="339.91" y1="820.26" x2="339.91" y2="819.58" gradientTransform="matrix(131.25, 0, 0, -110.08, -43618.59, 90342.1)" xlink:href="#linear-gradient-5"/><linearGradient id="linear-gradient-9" x1="342.59" y1="817.65" x2="342.59" y2="816.98" xlink:href="#linear-gradient-5"/><linearGradient id="linear-gradient-10" x1="341.7" y1="817.65" x2="341.7" y2="816.98" gradientTransform="matrix(131.25, 0, 0, -110.08, -44324.59, 90347.1)" xlink:href="#linear-gradient-5"/><linearGradient id="linear-gradient-11" x1="340.8" y1="817.63" x2="340.8" y2="816.96" gradientTransform="matrix(131.25, 0, 0, -110.08, -43970.59, 90342.1)" xlink:href="#linear-gradient-5"/><linearGradient id="linear-gradient-12" x1="339.91" y1="817.63" x2="339.91" y2="816.96" gradientTransform="matrix(131.25, 0, 0, -110.08, -43618.59, 90342.1)" xlink:href="#linear-gradient-5"/></defs><path id="Path_5" data-name="Path 5" d="M.2,672H1282.3V800H.2Z" transform="translate(0.1 0)" style="fill:#3d395b"/><ellipse cx="123.6" cy="776.8" rx="38.1" ry="7.8" style="opacity:0.30000001192092896;isolation:isolate"/><ellipse cx="198.7" cy="776.8" rx="38.1" ry="7.8" style="opacity:0.30000001192092896;isolation:isolate"/><ellipse cx="666.1" cy="780.4" rx="43.5" ry="8.4" style="opacity:0.30000001192092896;isolation:isolate"/><ellipse cx="753" cy="780.4" rx="42.3" ry="8.4" style="opacity:0.30000001192092896;isolation:isolate"/><path id="Path_961" data-name="Path 961" d="M1.3,336.6H1281.5V489.2H1.3Z" transform="translate(0.1 0)" style="fill:url(#linear-gradient)"/><path id="Path_139" data-name="Path 139" d="M1.3,80H1281.5V223H1.3Z" transform="translate(0.1 0)" style="fill:url(#linear-gradient-2)"/><path id="Path_129" data-name="Path 129" d="M1250.3,489.2l1-409.2,31.2-42.1V74l-.2,496.8Z" transform="translate(0.1 0)" style="fill:#d0566f"/><path id="Path_130" data-name="Path 130" d="M32.7,490.2,33.3,81,0,38.8.1,572.2Z" transform="translate(0.1 0)" style="fill:#d0566f"/><path id="Path_119" data-name="Path 119" d="M0,570l32.5-80.8,1217.7-.2,32,81.6Z" transform="translate(0.1 0)" style="fill:url(#linear-gradient-3)"/><path id="Path_128-2" data-name="Path 128-2" d="M0,303.4l32.5-80.8,1218.7.1,31,81.3Z" transform="translate(0.1 0)" style="fill:url(#linear-gradient-4)"/><rect x="0.1" y="570" width="1282.2" height="36" style="fill:#655773"/><path id="Path_120" data-name="Path 120" d="M0,38.8,33.3,81l1217.9-.4,31-41.9Z" transform="translate(0.1 0)" style="fill:#b1475d"/><ellipse id="Ellipse_1" data-name="Ellipse 1" cx="287.7" cy="55.8" rx="17.4" ry="3.9" style="fill:#fff"/><ellipse id="Ellipse_2" data-name="Ellipse 2" cx="993.2" cy="52.2" rx="17.3" ry="3.9" style="fill:#fff"/><ellipse id="Ellipse_3" data-name="Ellipse 3" cx="522" cy="55.8" rx="17.3" ry="3.9" style="fill:#fff"/><ellipse id="Ellipse_4" data-name="Ellipse 4" cx="758.3" cy="52.2" rx="17.3" ry="3.9" style="fill:#fff"/><rect width="1282.1" height="39" style="fill:#4054ad"/><g id="Layer_2-2" data-name="Layer 2"><path d="M188.2,612.5h22.3a17.79,17.79,0,0,1-.9,11.6s5.8,24.2,4.6,44.2c0,0,10.5,8.6,10.5,23.2v82.1s.1,2.4-1.7,3.1c-1.3.6-23.4,4.2-47.3,0,0,0-2.2-.4-2.2-3.5V690.9s.8-15,11.2-22.5c0,0-.2-34.7,4.9-43.7A17.72,17.72,0,0,1,188.2,612.5Z" transform="translate(0.1 0)" style="fill:#513316"/><path d="M191.3,613.9l16.4-.1a11.3,11.3,0,0,1-1.4,10.8s7,26.6,6,45.4c0,0,8.8,6.9,8.8,20.7s.2,76.2.2,76.2.1,2.2-1.4,2.9c-1.1.5-21.4,3.5-41.2-.4,0,0-1.8-.4-1.8-3.3V690.7s0-14.9,11.7-20.4c0,0-1.2-35.1,4.3-45.5C192.8,624.7,188.9,618.8,191.3,613.9Z" transform="translate(0.1 0)" style="fill:#c6752b"/><path d="M173.7,701.2s24.3-13.7,50.9,0v50.5s-22,12.2-50.9,0Z" transform="translate(0.1 0)" style="fill:#4f7234"/><path d="M176.2,703.3s21.9-12.5,45.9,0v46.2s-19.8,11.1-45.9,0V703.3Z" transform="translate(0.1 0)" style="fill:#eed813"/><path d="M178.1,705.1s20.1-11.5,42.1,0v42.3s-18.2,10.2-42.1,0Z" transform="translate(0.1 0)" style="fill:#4f7234"/><rect x="187.8" y="718.4" width="22.9" height="10" style="fill:#eed813"/><path d="M187.3,632.6s12-7.4,24.1,0A180.74,180.74,0,0,1,214,652s-11.6,8.1-28.9,0A166.75,166.75,0,0,1,187.3,632.6Z" transform="translate(0.1 0)" style="fill:#4f7234"/><path d="M187,634.1s10.8-7.4,24.6,0l.2,1.2s-12.9-7.5-25,0A5,5,0,0,1,187,634.1Z" transform="translate(0.1 0)" style="fill:#eed813"/><path d="M185.3,649.7s12.7,7.5,28.5,0l-.1-1s-14.6,7.3-28.4-.2Z" transform="translate(0.1 0)" style="fill:#eed813"/><path d="M190.1,623.7a110.6,110.6,0,0,0,18.2,0S200.4,629.5,190.1,623.7Z" transform="translate(0.1 0)" style="fill:#354923;opacity:0.6000000238418579;isolation:isolate"/><path d="M212.6,669.4s-14.9,2.8-26.3-.1" transform="translate(0.1 0)" style="fill:#354923;opacity:0.6100000143051147;isolation:isolate"/><path d="M207,614s1.9,6.9-1.8,10.4c0,0,7.3,35.3,4.5,46.1,0,0,10.2,8.1,10.2,19.5v82.6s.2,1.7-.7,2a24.7,24.7,0,0,1-9.5,1s-.8.1-.8-1.2-.4-83.4-.4-83.4-1.6-17.6-8.2-21.1c0,0,4.4-27.7.8-45.7,0,0,3.8-7.3.4-10.5Z" transform="translate(0.1 0)" style="fill:#fee000;opacity:0.6100000143051147;isolation:isolate"/><path d="M191.3,613.9s-.8,7.3,3,10.8c0,0-6.6,15.8-4.2,45,0,0-12.2,7.3-12.1,21.3.1,11.4-.5,81-.5,81s-.2,1.7.7,2,.7,1.4,4.5.9c0,0,.8.1.8-1.2s-.1-82.1-.1-82.1-.8-13,12.3-21.5c0,0-2.4-28,1.1-45.9,0,0-2.8-7.1.2-10.4Z" transform="translate(0.1 0)" style="fill:#020202;opacity:0.1899999976158142;isolation:isolate"/><path d="M207.4,608.6H191.1s-4.2-.1-4.2,5c0,0,.1,3.3,2.8,3.3h19.2s2.9-.1,2.8-4.1C211.6,609.1,207.4,608.6,207.4,608.6Z" transform="translate(0.1 0)" style="fill:#4f7234"/><path d="M202.7,609.3h4.6s3.6,2.9.3,6.9h-4.9S205.2,612.5,202.7,609.3Z" transform="translate(0.1 0)" style="fill:#fff;opacity:0.20999999344348907;isolation:isolate"/><path d="M195,609.4h-4.6s-3.6,2.9-.3,6.9H195C194.9,616.3,192.5,612.6,195,609.4Z" transform="translate(0.1 0)" style="opacity:0.25999999046325684;isolation:isolate"/></g><g id="Layer_3" data-name="Layer 3"><path d="M112.7,611.8H135a18.46,18.46,0,0,1-.9,11.6s5.8,24.2,4.6,44.2c0,0,10.5,8.6,10.5,23.2V773s.1,2.4-1.7,3.1c-1.3.6-23.4,4.2-47.3,0,0,0-2.2-.4-2.2-3.5V690.3s.8-15,11.2-22.5c0,0-.2-34.7,4.9-43.7A18.07,18.07,0,0,1,112.7,611.8Z" transform="translate(0.1 0)" style="fill:#4f7234"/><path d="M115.8,613.2l16.4-.1a11.62,11.62,0,0,1-1.4,10.8s7,26.6,6,45.4c0,0,8.8,6.9,8.8,20.7s.2,76.2.2,76.2.1,2.2-1.4,2.9c-1.1.5-21.4,3.5-41.2-.4,0,0-1.8-.4-1.8-3.3V690s0-14.9,11.7-20.4c0,0-1.2-35.1,4.3-45.5C117.3,624,113.4,618.1,115.8,613.2Z" transform="translate(0.1 0)" style="fill:#6dab43"/><path d="M98.2,700.5s24.3-13.7,50.9,0V751s-22,12.2-50.9,0Z" transform="translate(0.1 0)" style="fill:#921a1d"/><path d="M100.7,702.6s21.9-12.5,45.9,0v46.2s-19.8,11.1-45.9,0Z" transform="translate(0.1 0)" style="fill:#eed813"/><path d="M102.6,704.4s20.1-11.5,42.1,0v42.3s-18.2,10.2-42.1,0Z" transform="translate(0.1 0)" style="fill:#921a1d"/><rect x="112.3" y="717.7" width="22.9" height="10" style="fill:#eed813"/><path d="M111.8,631.9s12-7.4,24.1,0a184.76,184.76,0,0,1,2.6,19.4s-11.6,8.1-28.9,0C109.7,651.3,110.2,639.9,111.8,631.9Z" transform="translate(0.1 0)" style="fill:#921a1d"/><path d="M111.5,633.4s10.8-7.4,24.6,0l.2,1.2s-12.9-7.5-25,0A5,5,0,0,1,111.5,633.4Z" transform="translate(0.1 0)" style="fill:#eed813"/><path d="M109.8,649s12.7,7.5,28.5,0l-.1-1s-14.6,7.3-28.4-.2Z" transform="translate(0.1 0)" style="fill:#eed813"/><path d="M114.6,623a110.6,110.6,0,0,0,18.2,0S124.9,628.8,114.6,623Z" transform="translate(0.1 0)" style="fill:#354923;opacity:0.6000000238418579;isolation:isolate"/><path d="M137.1,668.7s-14.9,2.7-26.3-.1" transform="translate(0.1 0)" style="fill:#354923;opacity:0.6100000143051147;isolation:isolate"/><path d="M131.5,613.3s1.9,6.9-1.8,10.4c0,0,7.3,35.3,4.5,46.1,0,0,10.2,8.1,10.2,19.5v82.6s.2,1.7-.7,2a26.9,26.9,0,0,1-9.5,1s-.8.1-.8-1.2-.4-83.4-.4-83.4-1.6-17.6-8.2-21.1c0,0,4.4-27.7.8-45.7,0,0,3.8-7.3.4-10.5Z" transform="translate(0.1 0)" style="fill:#ead51b;opacity:0.46000000834465027;isolation:isolate"/><path d="M115.8,613.2s-.8,7.3,3,10.8c0,0-6.6,15.8-4.2,45,0,0-12.2,7.3-12.1,21.3.1,11.3-.5,81-.5,81s-.2,1.7.7,2,.7,1.4,4.5.9c0,0,.8.1.8-1.2s-.1-82.1-.1-82.1-.8-13,12.3-21.5c0,0-2.4-28,1.1-45.9,0,0-2.8-7.1.2-10.4Z" transform="translate(0.1 0)" style="fill:#3e5629;opacity:0.3499999940395355;isolation:isolate"/><path d="M131.9,607.9H115.6s-4.2-.1-4.2,5c0,0,.1,3.2,2.8,3.2h19.2s2.9-.1,2.8-4.1C136.1,608.4,131.9,607.9,131.9,607.9Z" transform="translate(0.1 0)" style="fill:#921a1d"/><path d="M127.2,608.6h4.6s3.6,2.9.3,6.9h-4.9S129.7,611.8,127.2,608.6Z" transform="translate(0.1 0)" style="fill:#fff;opacity:0.20999999344348907;isolation:isolate"/><path d="M118.5,608.7h-4.6s-3.6,2.9-.3,6.9h4.9C118.4,615.6,115.9,611.9,118.5,608.7Z" transform="translate(0.1 0)" style="opacity:0.25999999046325684;isolation:isolate"/></g><g id="Layer_7" data-name="Layer 7"><path d="M648,769.3a5.13,5.13,0,0,1-.6,3.2c-.9,1.4-2.7,3.9-2.7,3.9s-1.6,4.5,1.2,4.5H696s3.5-.6.8-4.8-3.5-5.4-3.5-5.4v-69l-45.2-.3v67.9Z" transform="translate(0.1 0)" style="fill:#d2e4ef"/><path d="M650.8,701.6l40.3.2v62.6s.3,4.5-3.1,4.5H653.6s-3.1.3-3.1-5.1V701.5" transform="translate(0.1 0)" style="fill:#fdb614"/><path d="M649,710.9l-1.4,2H633.2s-9.8-.3-9.8,8.4v21s-.7,4.8,5.4,10,19.3,15.8,19.3,15.8l.9,1.8V756.6l-1.2,1.1-15.1-12.4s-1.4-.7-1.4-7.6V722s.1-1.6,2.4-1.6h13.7L649,722Z" transform="translate(0.1 0)" style="fill:#d2e4ef"/><path d="M691.2,702s4.6-5.2-1.1-8.3c0,0,1.2-7.5-6.7-7.9,0,0-3.5-7.4-10.3-1.4,0,0-6.2-2.7-8.8,3.5,0,0-5.4-1.3-7.4,3.4,0,0-11.7-.2-8.3,10.5Z" transform="translate(0.1 0)" style="fill:#fff"/><path d="M681.6,702.8h6.5v68l4.3,6.6s.6,2-2,2h-9.7l-1-8.5-.1-68.2Z" transform="translate(0.1 0)" style="fill:#fff;opacity:0.4000000059604645;isolation:isolate"/><path d="M661.1,702.8h-6.5v68l-4.3,6.6s-.6,2,2,2H662l1-8.5.1-68.2Z" transform="translate(0.1 0)" style="fill:#f26a38;opacity:0.4399999976158142;isolation:isolate"/><path d="M647.2,713.7H633.3s-6.5-.2-8.3,6c0,0,1.6-3.7,8.2-3.7h14.1Z" transform="translate(0.1 0)" style="fill:#fff"/><path d="M631.9,745.8l15.5,12.4C647.5,758.2,637.3,755.6,631.9,745.8Z" transform="translate(0.1 0)" style="fill:#fff"/></g><g id="Layer_8" data-name="Layer 8"><path d="M732.4,769.3a5.13,5.13,0,0,1-.6,3.2c-.9,1.4-2.7,3.9-2.7,3.9s-1.6,4.5,1.2,4.5h50.1s3.5-.6.8-4.8-3.5-5.4-3.5-5.4v-69l-45.2-.3-.1,67.9Z" transform="translate(0.1 0)" style="fill:#d2e4ef"/><path d="M735.3,701.6l40.3.2v62.6s.3,4.5-3.1,4.5H738s-3.1.3-3.1-5.1V701.5" transform="translate(0.1 0)" style="fill:#3d2a11"/><path d="M733.5,710.9l-1.4,2H717.7s-9.8-.3-9.8,8.4v21s-.7,4.8,5.4,10,19.3,15.8,19.3,15.8l.9,1.8V756.6l-1.2,1.1-15.1-12.4s-1.4-.7-1.4-7.6V722s.1-1.6,2.4-1.6h13.7l1.6,1.6Z" transform="translate(0.1 0)" style="fill:#d2e4ef"/><path d="M775.7,702s4.6-5.2-1.1-8.3c0,0,1.2-7.5-6.7-7.9,0,0-3.5-7.4-10.3-1.4,0,0-6.2-2.7-8.8,3.5,0,0-5.4-1.3-7.4,3.4,0,0-11.7-.2-8.3,10.5Z" transform="translate(0.1 0)" style="fill:#fff"/><path d="M766.1,702.8h6.5v68l4.3,6.6s.6,2-2,2h-9.6l-1-8.5-.1-68.2Z" transform="translate(0.1 0)" style="fill:#fff;opacity:0.4000000059604645;isolation:isolate"/><path d="M745.6,702.8h-6.5v68l-4.3,6.6s-.6,2,2,2h9.7l1-8.5.1-68.2Z" transform="translate(0.1 0)" style="fill:#a13922;opacity:0.4399999976158142;isolation:isolate"/><path d="M731.6,713.7H717.7s-6.5-.2-8.3,6c0,0,1.6-3.7,8.2-3.7h14.1Z" transform="translate(0.1 0)" style="fill:#fff"/><path d="M716.4,745.8l15.5,12.4C732,758.2,721.8,755.6,716.4,745.8Z" transform="translate(0.1 0)" style="fill:#fff"/></g><path id="Path_131" data-name="Path 131" d="M269.88,55.5s.76-3.63,17-3.7S305,55.5,305,55.5L332.89,126H244.47Z" transform="translate(0.1 0)" style="fill:url(#linear-gradient-5)"/><path id="Path_132" data-name="Path 132" d="M504.35,55.5s.77-3.63,17-3.7,18.06,3.7,18.06,3.7L567.36,126H478.94Z" transform="translate(0.1 0)" style="fill:url(#linear-gradient-6)"/><path id="Path_133" data-name="Path 133" d="M740.85,52.13s.76-3.63,17-3.7,18.06,3.7,18.06,3.7l27.92,70.46H715.43Z" transform="translate(0.1 0)" style="fill:url(#linear-gradient-7)"/><path id="Path_134" data-name="Path 134" d="M976,52.13s.76-3.63,17-3.7,18.06,3.7,18.06,3.7L1039,122.59H950.58Z" transform="translate(0.1 0)" style="fill:url(#linear-gradient-8)"/><path id="Path_131-2" data-name="Path 131" d="M269.88,344.36s.76-3.63,17-3.7,18.06,3.7,18.06,3.7l27.92,70.46H244.47Z" transform="translate(0.1 0)" style="fill:url(#linear-gradient-9)"/><path id="Path_132-2" data-name="Path 132" d="M504.35,344.36s.77-3.63,17-3.7,18.06,3.7,18.06,3.7l27.92,70.46H478.94Z" transform="translate(0.1 0)" style="fill:url(#linear-gradient-10)"/><path id="Path_133-2" data-name="Path 133" d="M740.85,341s.76-3.63,17-3.7,18.06,3.7,18.06,3.7l27.92,70.46H715.43Z" transform="translate(0.1 0)" style="fill:url(#linear-gradient-11)"/><path id="Path_134-2" data-name="Path 134" d="M976,341s.76-3.63,17-3.7,18.06,3.7,18.06,3.7L1039,411.45H950.58Z" transform="translate(0.1 0)" style="fill:url(#linear-gradient-12)"/><rect x="0.4" y="303" width="1282" height="36" style="fill:#655773"/></svg>
