<svg id="Layer_2" data-name="Layer 2" xmlns="http://www.w3.org/2000/svg" xmlns:xlink="http://www.w3.org/1999/xlink" viewBox="0 0 1282.67 800"><defs><linearGradient id="linear-gradient" x1="130.13" y1="-17.87" x2="130.13" y2="-17.27" gradientTransform="translate(-249202.72 4203.07) scale(1920 213.51)" gradientUnits="userSpaceOnUse"><stop offset="0" stop-color="#ea738c"/><stop offset="1" stop-color="#753a46"/></linearGradient><linearGradient id="linear-gradient-2" x1="130.13" y1="-17.44" x2="130.13" y2="-16.75" gradientTransform="translate(-249202.72 3590.07) scale(1920 198.51)" xlink:href="#linear-gradient"/><linearGradient id="linear-gradient-3" x1="130.13" y1="-19" x2="130.13" y2="-19.54" gradientTransform="translate(-249174.12 2724.82) scale(1919.78 113.9)" gradientUnits="userSpaceOnUse"><stop offset="0" stop-color="#3a3659"/><stop offset="1" stop-color="#242139"/></linearGradient><linearGradient id="linear-gradient-4" x1="130.13" y1="-18.08" x2="130.13" y2="-18.69" gradientTransform="translate(-249174.12 2351.82) scale(1919.78 113.9)" gradientUnits="userSpaceOnUse"><stop offset="0" stop-color="#3d395e"/><stop offset="1" stop-color="#27253b"/></linearGradient></defs><path id="Path_5" data-name="Path 5" d="M.19,672H1282.25V800H.19Z" transform="translate(0.14)" style="fill:#3d395b"/><ellipse cx="123.66" cy="776.8" rx="38.11" ry="7.78" style="opacity:0.3"/><ellipse cx="198.72" cy="776.8" rx="38.11" ry="7.78" style="opacity:0.3"/><ellipse cx="666.13" cy="780.45" rx="43.52" ry="8.45" style="opacity:0.3"/><ellipse cx="753.05" cy="780.45" rx="42.26" ry="8.45" style="opacity:0.3"/><path id="Path_961" data-name="Path 961" d="M1.28,336.63H1281.43V489.22H1.28Z" transform="translate(0.14)" style="fill:url(#linear-gradient)"/><path id="Path_139" data-name="Path 139" d="M1.28,80H1281.43V223H1.28Z" transform="translate(0.14)" style="fill:url(#linear-gradient-2)"/><path id="Path_129" data-name="Path 129" d="M1250.28,489.22l1-409.22,31.25-42.09V74.05l-.15,496.83Z" transform="translate(0.14)" style="fill:#d0566f"/><path id="Path_130" data-name="Path 130" d="M32.71,490.2,33.28,81,0,38.79.11,572.16Z" transform="translate(0.14)" style="fill:#d0566f"/><path id="Path_119" data-name="Path 119" d="M0,570l32.53-80.76L1250.22,489l32,81.62Z" transform="translate(0.14)" style="fill:url(#linear-gradient-3)"/><path id="Path_128-2" data-name="Path 128-2" d="M0,303.4l32.53-80.76,1218.69.07,31,81.29Z" transform="translate(0.14)" style="fill:url(#linear-gradient-4)"/><rect x="0.42" y="303" width="1281.97" height="36" style="fill:#655773"/><rect x="0.17" y="570" width="1282.24" height="36" style="fill:#655773"/><path id="Path_120" data-name="Path 120" d="M0,38.79,33.31,81l1217.91-.38,31-41.93Z" transform="translate(0.14)" style="fill:#b1475d"/><ellipse id="Ellipse_1" data-name="Ellipse 1" cx="287.79" cy="55.76" rx="17.35" ry="3.93" style="fill:#fff"/><ellipse id="Ellipse_2" data-name="Ellipse 2" cx="993.25" cy="52.18" rx="17.35" ry="3.93" style="fill:#fff"/><ellipse id="Ellipse_3" data-name="Ellipse 3" cx="522.06" cy="55.76" rx="17.35" ry="3.93" style="fill:#fff"/><ellipse id="Ellipse_4" data-name="Ellipse 4" cx="758.32" cy="52.18" rx="17.35" ry="3.93" style="fill:#fff"/><rect width="1282.14" height="39" style="fill:#4054ad"/><g id="Layer_2-2" data-name="Layer 2"><path d="M188.2,612.52h22.3a18.43,18.43,0,0,1-.89,11.61s5.77,24.24,4.61,44.16a31.78,31.78,0,0,1,10.51,23.17v82.13s.12,2.36-1.7,3.11c-1.34.56-23.42,4.18-47.31,0,0,0-2.19-.4-2.19-3.48V690.91s.8-15,11.24-22.49c0,0-.23-34.66,4.93-43.73A17,17,0,0,1,188.2,612.52Z" transform="translate(0.14)" style="fill:#513316"/><path d="M191.34,613.87l16.35-.07a11.46,11.46,0,0,1-1.39,10.81s7,26.63,6,45.38c0,0,8.85,6.91,8.85,20.66s.16,76.18.16,76.18.1,2.22-1.42,2.93c-1.12.53-21.35,3.5-41.24-.43,0,0-1.83-.37-1.83-3.28V690.63s0-14.91,11.66-20.43c0,0-1.2-35.1,4.33-45.5C192.84,624.7,188.88,618.77,191.34,613.87Z" transform="translate(0.14)" style="fill:#c6752b"/><path d="M173.73,701.2s24.3-13.69,50.91,0v50.53s-22,12.15-50.91,0Z" transform="translate(0.14)" style="fill:#4f7234"/><path d="M176.24,703.35s21.9-12.51,45.9,0v46.16s-19.82,11.1-45.9,0Z" transform="translate(0.14)" style="fill:#eed813"/><path d="M178.14,705.1s20.09-11.47,42.1,0v42.32s-18.19,10.18-42.1,0Z" transform="translate(0.14)" style="fill:#4f7234"/><rect x="187.85" y="718.36" width="22.95" height="10.03" style="fill:#eed813"/><path d="M187.29,632.58s12-7.42,24.09,0A195,195,0,0,1,214,652s-11.62,8.13-28.86,0A155.35,155.35,0,0,1,187.29,632.58Z" transform="translate(0.14)" style="fill:#4f7234"/><path d="M187,634.11s10.8-7.41,24.56,0l.22,1.16s-12.95-7.52-25,0A6.82,6.82,0,0,1,187,634.11Z" transform="translate(0.14)" style="fill:#eed813"/><path d="M185.34,649.73s12.73,7.48,28.52,0l-.11-1s-14.59,7.32-28.38-.21A6.12,6.12,0,0,0,185.34,649.73Z" transform="translate(0.14)" style="fill:#eed813"/><path d="M190.15,623.72a112.23,112.23,0,0,0,18.15,0S200.39,629.51,190.15,623.72Z" transform="translate(0.14)" style="fill:#354923;opacity:0.6000000238418579;isolation:isolate"/><path d="M212.65,669.35s-14.93,2.75-26.29-.15" transform="translate(0.14)" style="fill:#354923;opacity:0.6100000143051147;isolation:isolate"/><path d="M207,614s1.87,6.92-1.85,10.43c0,0,7.33,35.26,4.49,46.07,0,0,10.19,8.13,10.19,19.48v82.58s.18,1.68-.7,2a25.09,25.09,0,0,1-9.48,1s-.8.08-.8-1.17-.44-83.44-.44-83.44-1.63-17.62-8.24-21.07c0,0,4.37-27.71.83-45.68,0,0,3.8-7.3.38-10.51Z" transform="translate(0.14)" style="fill:#fee000;opacity:0.6100000143051147;isolation:isolate"/><path d="M191.34,613.87s-.75,7.3,3,10.8c0,0-6.6,15.82-4.17,45,0,0-12.18,7.3-12.09,21.27.07,11.35-.53,81-.53,81s-.19,1.68.7,2,.73,1.38,4.45.85c0,0,.8.08.8-1.18s-.11-82.07-.11-82.07-.79-13,12.27-21.5c0,0-2.42-28,1.12-45.94,0,0-2.79-7.13.17-10.44Z" transform="translate(0.14)" style="fill:#020202;opacity:0.1899999976158142;isolation:isolate"/><path d="M207.43,608.65H191.15s-4.24-.15-4.24,5c0,0,.1,3.25,2.76,3.25h19.21s2.93-.1,2.8-4.13C211.57,609.1,207.43,608.65,207.43,608.65Z" transform="translate(0.14)" style="fill:#4f7234"/><path d="M202.67,609.3h4.57a4.65,4.65,0,0,1,.35,6.88h-4.86S205.22,612.48,202.67,609.3Z" transform="translate(0.14)" style="fill:#fff;opacity:0.20999999344348907;isolation:isolate"/><path d="M195,609.38h-4.58a4.65,4.65,0,0,0-.34,6.88H195S192.46,612.59,195,609.38Z" transform="translate(0.14)" style="opacity:0.25999999046325684;isolation:isolate"/></g><g id="Layer_3" data-name="Layer 3"><path d="M112.69,611.81H135a18.39,18.39,0,0,1-.89,11.6s5.77,24.24,4.61,44.16a31.78,31.78,0,0,1,10.51,23.17v82.15s.12,2.37-1.7,3.13c-1.34.55-23.42,4.16-47.3,0,0,0-2.2-.4-2.2-3.49V690.21s.8-15,11.24-22.48c0,0-.23-34.66,4.93-43.73A17,17,0,0,1,112.69,611.81Z" transform="translate(0.14)" style="fill:#4f7234"/><path d="M115.82,613.19l16.36-.07a11.48,11.48,0,0,1-1.37,10.79s7,26.63,6,45.38c0,0,8.84,6.91,8.84,20.66s.17,76.18.17,76.18.1,2.22-1.42,2.93c-1.11.52-21.35,3.49-41.24-.43,0,0-1.83-.37-1.83-3.28V689.93s0-14.9,11.66-20.44c0,0-1.2-35.1,4.32-45.49C117.3,624,113.37,618.06,115.82,613.19Z" transform="translate(0.14)" style="fill:#6dab43"/><path d="M98.21,700.5s24.31-13.7,50.92,0V751s-22,12.15-50.92,0Z" transform="translate(0.14)" style="fill:#921a1d"/><path d="M100.72,702.65s21.91-12.51,45.9,0v46.17s-19.82,11.1-45.9,0Z" transform="translate(0.14)" style="fill:#eed813"/><path d="M102.62,704.41s20.1-11.48,42.11,0v42.32s-18.19,10.18-42.11,0Z" transform="translate(0.14)" style="fill:#921a1d"/><rect x="112.34" y="717.66" width="22.95" height="10.03" style="fill:#eed813"/><path d="M111.78,631.88s12-7.42,24.09,0c0,0,2.07,11,2.62,19.37,0,0-11.62,8.14-28.86,0A159.93,159.93,0,0,1,111.78,631.88Z" transform="translate(0.14)" style="fill:#921a1d"/><path d="M111.49,633.41s10.82-7.41,24.58,0l.2,1.15s-12.94-7.51-25,0A6.84,6.84,0,0,1,111.49,633.41Z" transform="translate(0.14)" style="fill:#eed813"/><path d="M109.83,649s12.73,7.49,28.51,0l-.1-1s-14.59,7.32-28.37-.2A5,5,0,0,0,109.83,649Z" transform="translate(0.14)" style="fill:#eed813"/><path d="M114.61,623a112.36,112.36,0,0,0,18.16,0S124.87,628.81,114.61,623Z" transform="translate(0.14)" style="fill:#354923;opacity:0.6000000238418579;isolation:isolate"/><path d="M137.14,668.65s-14.94,2.75-26.29-.15" transform="translate(0.14)" style="fill:#354923;opacity:0.6100000143051147;isolation:isolate"/><path d="M131.48,613.27s1.92,6.92-1.85,10.42c0,0,7.33,35.27,4.49,46.08,0,0,10.19,8.13,10.19,19.48v82.58s.19,1.69-.7,2a25,25,0,0,1-9.47,1s-.81.08-.81-1.17-.44-83.44-.44-83.44-1.62-17.63-8.24-21.07c0,0,4.37-27.71.83-45.68,0,0,3.81-7.3.38-10.52Z" transform="translate(0.14)" style="fill:#ead51b;opacity:0.46000000834465027;isolation:isolate"/><path d="M115.82,613.19s-.75,7.3,3,10.81c0,0-6.6,15.82-4.17,45,0,0-12.19,7.3-12.09,21.27.07,11.35-.53,81-.53,81s-.19,1.68.7,2,.73,1.39,4.45.86c0,0,.8.07.8-1.18s-.11-82.07-.11-82.07-.77-13,12.27-21.51c0,0-2.42-28,1.12-45.94,0,0-2.79-7.13.17-10.44Z" transform="translate(0.14)" style="fill:#3e5629;opacity:0.3499999940395355;isolation:isolate"/><path d="M131.92,607.94H115.63s-4.23-.15-4.23,5c0,0,.1,3.25,2.76,3.25h19.23s2.94-.11,2.81-4.15C136.06,608.4,131.92,607.94,131.92,607.94Z" transform="translate(0.14)" style="fill:#921a1d"/><path d="M127.16,608.6h4.57a4.65,4.65,0,0,1,.35,6.88h-4.86S129.7,611.78,127.16,608.6Z" transform="translate(0.14)" style="fill:#fff;opacity:0.20999999344348907;isolation:isolate"/><path d="M118.46,608.69h-4.57a4.65,4.65,0,0,0-.34,6.88h4.85S115.89,611.87,118.46,608.69Z" transform="translate(0.14)" style="opacity:0.25999999046325684;isolation:isolate"/></g><g id="Layer_7" data-name="Layer 7"><path d="M648,769.29a4.83,4.83,0,0,1-.63,3.15c-1,1.42-2.72,3.89-2.72,3.89s-1.65,4.46,1.18,4.46h50.08s3.54-.6.82-4.84-3.53-5.41-3.53-5.41v-69l-45.2-.26Z" transform="translate(0.14)" style="fill:#d2e4ef"/><path d="M650.77,701.64l40.27.25v62.63s.28,4.55-3.12,4.55h-34.4s-3.13.28-3.13-5.1V701.68" transform="translate(0.14)" style="fill:#fdb614"/><path d="M649,710.89l-1.41,2H633.23s-9.76-.27-9.76,8.44v20.95s-.71,4.76,5.36,10,19.28,15.84,19.28,15.84L649,770v-13.3l-1.23,1.15L632.7,745.4s-1.42-.71-1.42-7.65V722s.09-1.58,2.38-1.58h13.73L649,722Z" transform="translate(0.14)" style="fill:#d2e4ef"/><path d="M691.2,702s4.64-5.19-1.11-8.28c0,0,1.22-7.52-6.74-7.85,0,0-3.54-7.4-10.28-1.44,0,0-6.19-2.65-8.84,3.54,0,0-5.42-1.33-7.41,3.43,0,0-11.75-.21-8.32,10.52Z" transform="translate(0.14)" style="fill:#fff"/><path d="M681.57,702.81h6.49v68l4.33,6.62s.64,2-2,2h-9.68l-1-8.53,0-68.16Z" transform="translate(0.14)" style="fill:#fff;opacity:0.4000000059604645;isolation:isolate"/><path d="M661.12,702.81h-6.49v68l-4.33,6.61s-.64,2,2,2H662l1-8.53.05-68.16Z" transform="translate(0.14)" style="fill:#f26a38;opacity:0.4399999976158142;isolation:isolate"/><path d="M647.16,713.71H633.24s-6.47-.21-8.33,6c0,0,1.59-3.67,8.22-3.67h14Z" transform="translate(0.14)" style="fill:#fff"/><path d="M631.93,745.78l15.55,12.42A27,27,0,0,1,631.93,745.78Z" transform="translate(0.14)" style="fill:#fff"/></g><g id="Layer_8" data-name="Layer 8"><path d="M732.44,769.29a4.83,4.83,0,0,1-.64,3.15c-.94,1.42-2.7,3.89-2.7,3.89s-1.65,4.46,1.18,4.46h50.07s3.53-.6.83-4.84-3.54-5.41-3.54-5.41v-69l-45.18-.26v68Z" transform="translate(0.14)" style="fill:#d2e4ef"/><path d="M735.25,701.64l40.28.25v62.63s.27,4.55-3.13,4.55H738s-3.13.28-3.13-5.1V701.68" transform="translate(0.14)" style="fill:#3d2a11"/><path d="M733.47,710.89l-1.4,2H717.71s-9.77-.27-9.77,8.44v20.95s-.7,4.76,5.37,10,19.28,15.84,19.28,15.84l.88,1.77v-13.3l-1.23,1.15-15-12.41s-1.41-.71-1.41-7.65V722s.09-1.58,2.37-1.58h13.74l1.58,1.58Z" transform="translate(0.14)" style="fill:#d2e4ef"/><path d="M775.68,702s4.64-5.19-1.11-8.28c0,0,1.22-7.52-6.74-7.85,0,0-3.54-7.4-10.28-1.44,0,0-6.19-2.65-8.85,3.54,0,0-5.41-1.33-7.4,3.43,0,0-11.75-.21-8.32,10.52Z" transform="translate(0.14)" style="fill:#fff"/><path d="M766.06,702.81h6.49v68l4.32,6.61s.64,2-2,2h-9.64l-1-8.53-.06-68.16Z" transform="translate(0.14)" style="fill:#fff;opacity:0.4000000059604645;isolation:isolate"/><path d="M745.6,702.81h-6.5v68l-4.32,6.61s-.64,2,2,2h9.68l1-8.53,0-68.16Z" transform="translate(0.14)" style="fill:#a13922;opacity:0.4399999976158142;isolation:isolate"/><path d="M731.64,713.71H717.72s-6.46-.21-8.33,6c0,0,1.6-3.67,8.22-3.67h14Z" transform="translate(0.14)" style="fill:#fff"/><path d="M716.41,745.78,732,758.2A27,27,0,0,1,716.41,745.78Z" transform="translate(0.14)" style="fill:#fff"/></g></svg>