<svg id="Layer_1" data-name="Layer 1" xmlns="http://www.w3.org/2000/svg" xmlns:xlink="http://www.w3.org/1999/xlink" viewBox="0 0 768.86 1024.46"><defs><linearGradient id="linear-gradient" x1="-14.07" y1="1153.26" x2="-14.07" y2="1152.1" gradientTransform="matrix(320, 0, 0, -82.6, 4887.5, 95329.8)" gradientUnits="userSpaceOnUse"><stop offset="0" stop-color="#ea738c"/><stop offset="1" stop-color="#753a46"/></linearGradient><linearGradient id="linear-gradient-2" x1="-14.07" y1="1152.76" x2="-14.07" y2="1153.8" gradientTransform="matrix(319.81, 0, 0, -47.62, 4884.81, 55083.83)" gradientUnits="userSpaceOnUse"><stop offset="0" stop-color="#3d395e"/><stop offset="1" stop-color="#27253b"/></linearGradient><linearGradient id="linear-gradient-3" x1="-14.07" y1="1151.07" x2="-14.07" y2="1149.91" xlink:href="#linear-gradient"/><linearGradient id="linear-gradient-4" x1="-14.07" y1="1148.97" x2="-14.07" y2="1150.01" xlink:href="#linear-gradient-2"/><linearGradient id="linear-gradient-5" x1="-14.07" y1="1148.88" x2="-14.07" y2="1147.72" xlink:href="#linear-gradient"/><linearGradient id="linear-gradient-6" x1="-14.07" y1="1145.17" x2="-14.07" y2="1146.21" xlink:href="#linear-gradient-2"/><linearGradient id="linear-gradient-7" x1="-14.07" y1="1146.69" x2="-14.07" y2="1145.53" xlink:href="#linear-gradient"/><linearGradient id="linear-gradient-8" x1="-14.07" y1="1141.37" x2="-14.07" y2="1142.42" xlink:href="#linear-gradient-2"/><linearGradient id="linear-gradient-9" x1="-14.07" y1="1144.52" x2="-14.07" y2="1143.36" xlink:href="#linear-gradient"/><linearGradient id="linear-gradient-10" x1="-14.07" y1="1137.61" x2="-14.07" y2="1138.65" xlink:href="#linear-gradient-2"/></defs><path id="Path_1000" data-name="Path 1000" d="M-.73,861.69V1024h768.4l.47-163.28Z" transform="translate(0.73 0.45)" style="fill:#4054ad"/><path id="Path_1000-2" data-name="Path 1000" d="M-.49-.22-.44,37l768.21-.64L767.9-.45Z" transform="translate(0.73 0.45)" style="fill:#4054ad"/><rect id="Rectangle_561" data-name="Rectangle 561" x="0.45" y="193.88" width="767.96" height="23.11" style="fill:#655773"/><path id="Path_1003" data-name="Path 1003" d="M-.27,35.91H767.68V136.37H-.27Z" transform="translate(0.73 0.45)" style="fill:url(#linear-gradient)"/><path id="Path_1004" data-name="Path 1004" d="M-.27,193.42V136.29l767.95.07v57.85Z" transform="translate(0.73 0.45)" style="fill:url(#linear-gradient-2)"/><rect id="Rectangle_561-2" data-name="Rectangle 561" x="0.45" y="374.43" width="767.96" height="23.82" style="fill:#655773"/><path id="Path_1003-2" data-name="Path 1003" d="M-.27,216.45H767.68V316.92H-.27Z" transform="translate(0.73 0.45)" style="fill:url(#linear-gradient-3)"/><path id="Path_1004-2" data-name="Path 1004" d="M-.22,374V316.84l767.85.07v57.85Z" transform="translate(0.73 0.45)" style="fill:url(#linear-gradient-4)"/><rect id="Rectangle_561-3" data-name="Rectangle 561" x="0.45" y="555.41" width="767.96" height="23.11" style="fill:#655773"/><path id="Path_1003-3" data-name="Path 1003" d="M-.27,397.44H767.68V497.91H-.27Z" transform="translate(0.73 0.45)" style="fill:url(#linear-gradient-5)"/><path id="Path_1004-3" data-name="Path 1004" d="M-.22,555V497.82l767.85.07v57.85Z" transform="translate(0.73 0.45)" style="fill:url(#linear-gradient-6)"/><rect id="Rectangle_561-4" data-name="Rectangle 561" x="0.45" y="736.07" width="767.96" height="23.11" style="fill:#655773"/><path id="Path_1003-4" data-name="Path 1003" d="M-.27,578.09H767.68V678.56H-.27Z" transform="translate(0.73 0.45)" style="fill:url(#linear-gradient-7)"/><path id="Path_1004-4" data-name="Path 1004" d="M-.22,735.6V678.47l767.85.08V736.4Z" transform="translate(0.73 0.45)" style="fill:url(#linear-gradient-8)"/><rect id="Rectangle_561-5" data-name="Rectangle 561" x="0.45" y="915.28" width="767.96" height="23.11" style="fill:#655773"/><path id="Path_1003-5" data-name="Path 1003" d="M-.27,757.3H767.68V857.77H-.27Z" transform="translate(0.73 0.45)" style="fill:url(#linear-gradient-9)"/><path id="Path_1004-5" data-name="Path 1004" d="M-.22,914.81V857.68l767.85.08v57.85Z" transform="translate(0.73 0.45)" style="fill:url(#linear-gradient-10)"/><path id="Path_1000-3" data-name="Path 1000" d="M-.27,35.61l.05,19.84,767.77-.34.13-19.62Z" transform="translate(0.73 0.45)" style="fill:#b1475d"/><ellipse id="Ellipse_2" data-name="Ellipse 2" cx="384.43" cy="44.29" rx="18.87" ry="3.59" style="fill:#fff"/></svg>