<svg id="Layer_1" data-name="Layer 1" xmlns="http://www.w3.org/2000/svg" xmlns:xlink="http://www.w3.org/1999/xlink" viewBox="0 0 1025 769"><defs><linearGradient id="linear-gradient" x1="-126.81" y1="785.8" x2="-126.81" y2="785.22" gradientTransform="matrix(1920, 0, 0, -213.51, 243979, 168147.77)" gradientUnits="userSpaceOnUse"><stop offset="0" stop-color="#ea738c"/><stop offset="1" stop-color="#753a46"/></linearGradient><linearGradient id="linear-gradient-2" x1="-126.81" y1="785.3" x2="-126.81" y2="784.64" gradientTransform="matrix(1920, 0, 0, -198.51, 243979, 156014.77)" xlink:href="#linear-gradient"/><linearGradient id="linear-gradient-3" x1="-126.81" y1="786.91" x2="-126.81" y2="787.43" gradientTransform="matrix(1919.78, 0, 0, -113.9, 243951.06, 90169.02)" gradientUnits="userSpaceOnUse"><stop offset="0" stop-color="#3a3659"/><stop offset="1" stop-color="#242139"/></linearGradient><linearGradient id="linear-gradient-4" x1="-126.81" y1="785.9" x2="-126.81" y2="786.49" gradientTransform="matrix(1919.78, 0, 0, -113.9, 243951.06, 89796.02)" gradientUnits="userSpaceOnUse"><stop offset="0" stop-color="#3d395e"/><stop offset="1" stop-color="#27253b"/></linearGradient></defs><path id="Path_5" data-name="Path 5" d="M.07,647H1023.2V770H.07Z" transform="translate(1 -1)" style="fill:#3d395b"/><path id="Path_961" data-name="Path 961" d="M0,324.58H1023.32V471.26H0Z" transform="translate(1 -1)" style="fill:url(#linear-gradient)"/><path id="Path_139" data-name="Path 139" d="M0,77.9H1023.32V215.36H0Z" transform="translate(1 -1)" style="fill:url(#linear-gradient-2)"/><path id="Path_129" data-name="Path 129" d="M997.62,471.26l.8-393.36,25-40.46V72.18l-.12,477.58Z" transform="translate(1 -1)" style="fill:#d0566f"/><path id="Path_130" data-name="Path 130" d="M25.17,472.21l.46-393.32L0,38.29.11,551Z" transform="translate(1 -1)" style="fill:#d0566f"/><path id="Path_119" data-name="Path 119" d="M-1,548.89l26-77.63,972.63-.21,25.58,78.46Z" transform="translate(1 -1)" style="fill:url(#linear-gradient-3)"/><path id="Path_128-2" data-name="Path 128-2" d="M-1,292.64,25,215l973.43.07,24.78,78.18Z" transform="translate(1 -1)" style="fill:url(#linear-gradient-4)"/><rect x="0.23" y="291.26" width="1023.97" height="34.61" style="fill:#655773"/><rect x="1.03" y="547.91" width="1023.97" height="34.61" style="fill:#655773"/><path id="Path_120" data-name="Path 120" d="M0,38.43,25.61,78.86l972.81-.37,24.78-40.3Z" transform="translate(1 -1)" style="fill:#b1475d"/><ellipse id="Ellipse_1" data-name="Ellipse 1" cx="229.94" cy="53.6" rx="13.87" ry="3.78" style="fill:#fff"/><ellipse id="Ellipse_2" data-name="Ellipse 2" cx="793.85" cy="50.16" rx="13.87" ry="3.78" style="fill:#fff"/><ellipse id="Ellipse_3" data-name="Ellipse 3" cx="417.2" cy="53.6" rx="13.87" ry="3.78" style="fill:#fff"/><ellipse id="Ellipse_4" data-name="Ellipse 4" cx="606.05" cy="50.16" rx="13.87" ry="3.78" style="fill:#fff"/><rect x="0.23" width="1023.97" height="37.49" style="fill:#4054ad"/></svg>