<svg id="Layer_5" data-name="Layer 5" xmlns="http://www.w3.org/2000/svg" viewBox="0 0 32.78 138.76"><circle cx="16.39" cy="114.06" r="16.39" style="fill:#c4c4c4"/><path d="M296.09,324.6l-4.86,6.1,3,5.6,8,.42A17.29,17.29,0,0,0,296.09,324.6Z" transform="translate(-270.45 -222.98)" style="fill:#fff;opacity:0.85"/><path d="M301.16,343.61A15.23,15.23,0,0,1,294,351l.83-7.58.25-2.09Z" transform="translate(-270.45 -222.98)" style="fill:#fff;opacity:0.85"/><path d="M278.1,324.35l4.86,6.1-3,5.6-8.5.35A18.9,18.9,0,0,1,278.1,324.35Z" transform="translate(-270.45 -222.98)" style="fill:#fff;opacity:0.85"/><path d="M272.79,344.29a17,17,0,0,0,7.13,7l1.67-7.35-3.09-2.38Z" transform="translate(-270.45 -222.98)" style="opacity:0.53"/><circle cx="16.39" cy="114.07" r="13.35" style="fill:#c4c4c4"/><circle cx="16.32" cy="4.56" r="4.56" style="fill:#abcaea"/><path d="M276.45,236.88s.54-8.38,10.45-8.38,10.18,8.2,10.18,8.2L293.28,300H279.91Z" transform="translate(-270.45 -222.98)" style="fill:#302f2e"/><rect x="9.54" y="4.58" width="13.57" height="3.2" rx="1.3" style="fill:#302f2e"/><path d="M280.08,300a3.57,3.57,0,0,1,2.2,3h8.79a3.05,3.05,0,0,1,2.38-3Z" transform="translate(-270.45 -222.98)" style="fill:#302f2e"/><rect x="8.32" y="79.28" width="15.99" height="4.94" rx="2.02" style="fill:#302f2e"/><path d="M281.14,307.2h11.31l-.55,6s-.11.82,1.24,1.39H280.39s1.34-.54,1.5-1.5A41.11,41.11,0,0,0,281.14,307.2Z" transform="translate(-270.45 -222.98)" style="fill:#abcaea"/><rect x="6.97" y="91.34" width="18.71" height="8.61" style="fill:#abcaea"/><rect x="9.67" y="99.93" width="13.3" height="3.51" style="fill:#ddd"/><rect x="6.77" y="103.44" width="19.1" height="15.35" style="fill:#ddd"/><rect x="7.34" y="103.8" width="3.59" height="6.67" style="opacity:0.53"/><rect x="14.33" y="103.83" width="11.08" height="7.04" style="fill:#fff;opacity:0.85"/><path d="M292.5,358.45s.67-12.75,2.53-17.08l-16.53.24S281.69,353,281,358.18" transform="translate(-270.45 -222.98)" style="fill:#ddd"/><ellipse cx="16.32" cy="135.4" rx="5.73" ry="3.36" style="fill:#666766"/><ellipse cx="16.29" cy="135.48" rx="4.76" ry="2.57"/><circle cx="16.32" cy="115.48" r="10.45" style="fill:#e0e0e0"/><path d="M288.06,328.42s6.51,1.33,8.15,7.59-3.55,10.3-3.55,10.3S298.28,336.07,288.06,328.42Z" transform="translate(-270.45 -222.98)" style="fill:#fff;opacity:0.85"/><path d="M277.42,341s1,4.14,4.3,6a10.48,10.48,0,0,0,6.48,1.27S280.92,346.15,277.42,341Z" transform="translate(-270.45 -222.98)" style="opacity:0.48"/><path d="M290.84,227.35h-2.72a3.72,3.72,0,0,0-2.19-3.78S289.81,222.77,290.84,227.35Z" transform="translate(-270.45 -222.98)" style="fill:#fff;opacity:0.34"/><path d="M281,230.28h11.53A24.68,24.68,0,0,1,281,230.28Z" transform="translate(-270.45 -222.98)" style="fill:#020202"/><path d="M292.85,229.92s.7-1.6-.67-2H283.7S292.74,228.53,292.85,229.92Z" transform="translate(-270.45 -222.98)" style="fill:#fff;opacity:0.75"/><path d="M295.66,237.29c0,3.8-3.59,61.6-3.59,61.6h-2.84s4.36-56.73,3.86-62a8.76,8.76,0,0,0-3.2-5.55,17,17,0,0,0,3-.52S295.62,232.65,295.66,237.29Z" transform="translate(-270.45 -222.98)" style="fill:#fff;opacity:0.47000000000000003"/><path d="M277.89,237.52c0,3.81,3.59,61.61,3.59,61.61h2.84s-4.37-56.74-3.87-62a8.77,8.77,0,0,1,3.2-5.54,17.13,17.13,0,0,1-3-.52S277.92,232.88,277.89,237.52Z" transform="translate(-270.45 -222.98)" style="opacity:0.53"/><path d="M280.52,300h12.29S286.4,302,280.52,300Z" transform="translate(-270.45 -222.98)"/><path d="M287.34,302.78h4.75a2.13,2.13,0,0,1,2,2.09c0,1.93-1.55,1.85-1.55,1.85S293.48,303.71,287.34,302.78Z" transform="translate(-270.45 -222.98)" style="fill:#fff;opacity:0.47000000000000003"/><path d="M280.26,303.17a1.91,1.91,0,0,0-.94,1.68c0,1.2,1.62,1.88,1.62,1.88h5S280.61,306.35,280.26,303.17Z" transform="translate(-270.45 -222.98)" style="opacity:0.53"/><polygon points="21.3 84.38 20.78 90.36 21.54 91.4 17.54 91.4 17.25 90.4 17.84 84.38 21.3 84.38" style="fill:#fff;opacity:0.85"/><polygon points="11.45 84.43 11.97 90.4 11.21 91.44 13.59 91.44 13.87 90.45 13.28 84.43 11.45 84.43" style="opacity:0.53"/><rect x="17.21" y="91.91" width="7.57" height="7.61" style="fill:#fff;opacity:0.85"/><rect x="7.31" y="91.91" width="3.67" height="7.61" style="opacity:0.53"/><rect x="14.87" y="100.46" width="7.16" height="2.78" style="fill:#fff;opacity:0.85"/><rect x="10.48" y="100.5" width="1.87" height="2.78" style="opacity:0.53"/><circle cx="16.17" cy="115.06" r="6.09" style="fill:#f0efef;opacity:0.85"/><path d="M284.71,339.94s3.59-.09,4.82-3c0,0,.49-1.63-1.56-3.1a3.3,3.3,0,0,0-4,.24s-2.12,1.8-1.06,3.93S284.71,339.94,284.71,339.94Z" transform="translate(-270.45 -222.98)" style="fill:#fff"/><path d="M289.28,334s2.94.64,2.56,4.22c0,0-1.15,1.79-2,2C289.86,340.2,291.77,337.71,289.28,334Z" transform="translate(-270.45 -222.98)" style="fill:#fff"/><ellipse cx="286.5" cy="341.02" rx="1.21" ry="0.45" transform="translate(-402.57 -34.04) rotate(-30)" style="fill:#fff"/><path d="M281.51,340.74s2,3.32,5.41,2.93a6.16,6.16,0,0,0,5.15-4.1,6.88,6.88,0,0,1-5.08,3.06A10.27,10.27,0,0,1,281.51,340.74Z" transform="translate(-270.45 -222.98)" style="opacity:0.76"/><path d="M292.82,347.67c.21-.14-.79,8.56-.79,8.56a8.78,8.78,0,0,0-4.95-1.76v-5.12A9.26,9.26,0,0,0,292.82,347.67Z" transform="translate(-270.45 -222.98)" style="fill:#fff;opacity:0.8200000000000001"/><path d="M280.81,347.71c-.16-.19.94,8.5.94,8.5a3.62,3.62,0,0,1,2.45-1.31v-5.54A5.91,5.91,0,0,1,280.81,347.71Z" transform="translate(-270.45 -222.98)" style="opacity:0.48"/><path d="M283,356.35a7.19,7.19,0,0,1,3.45-.89,11.09,11.09,0,0,1,3.71.69" transform="translate(-270.45 -222.98)" style="fill:none;stroke:#fff;stroke-miterlimit:10;stroke-width:0.400000005960465px"/><path d="M283.16,360.51a7.07,7.07,0,0,0,3.44.9,11,11,0,0,0,3.72-.7" transform="translate(-270.45 -222.98)" style="fill:none;stroke:#fff;stroke-miterlimit:10;stroke-width:0.400000005960465px"/></svg>