<svg id="Layer_2" data-name="Layer 2" xmlns="http://www.w3.org/2000/svg" viewBox="0 0 210 292.19"><ellipse id="Ellipse_16" data-name="Ellipse 16" cx="105" cy="267.19" rx="105" ry="25" style="fill:#d2e4f5"/><g id="Group_144" data-name="Group 144"><g id="Group_44" data-name="Group 44"><g id="Group_42" data-name="Group 42" style="opacity:0.699999988079071"><rect id="Rectangle_172" data-name="Rectangle 172" x="6.39" width="196.96" height="271.06" rx="62.36" style="fill:#d1e4f6"/></g><g id="Group_43" data-name="Group 43"><rect id="Rectangle_173" data-name="Rectangle 173" x="6.64" y="113.28" width="196.96" height="157.88" rx="62.36" style="fill:#ffc629"/></g><rect id="Rectangle_174" data-name="Rectangle 174" x="6.55" y="113.17" width="196.67" height="66.67" style="fill:#ffc629"/><path id="Path_123" data-name="Path 123" d="M226.13,94.49S286,103.33,339,93.92C339,93.92,288.24,127.26,226.13,94.49Z" transform="translate(-180.36 -84.76)" style="fill:#b4d8f2"/><path id="Path_126" data-name="Path 126" d="M230.83,349s59.84-8.83,112.84.57C343.67,349.58,293,316.24,230.83,349Z" transform="translate(-180.36 -84.76)" style="fill:#c7902b"/><path id="Path_127" data-name="Path 127" d="M250.2,347.73" transform="translate(-180.36 -84.76)" style="fill:#050706"/><path id="Path_124" data-name="Path 124" d="M339.09,342.11c28-12.54,31.79-41,31.79-43.88V142.08c0-31.91-33.06-41-33.06-41A94.68,94.68,0,0,1,327,106.52V337.8Z" transform="translate(-180.36 -84.76)" style="fill:#fff;opacity:0.550000011920929;isolation:isolate"/><path id="Path_125" data-name="Path 125" d="M226.36,346.09c-14-6.27-24-18.51-28.45-27.56s-5.4-16.88-5.4-18.31V144.07c0-15.95,10.09-31,18.35-37.23s14.61-7.44,14.61-7.44a114.66,114.66,0,0,0,26.26,10.5V335.64A130.18,130.18,0,0,0,226.36,346.09Z" transform="translate(-180.36 -84.76)" style="fill:#050706;opacity:0.070000000298023;isolation:isolate"/></g></g></svg>